<svg xmlns="http://www.w3.org/2000/svg" viewBox="0 0 200 200" fill="none" stroke="#4a5568" stroke-width="1.5">
  <rect width="200" height="200" fill="#f7fafc"/>
  <!-- Radial Loop Pattern - ridges loop toward radius bone (thumb side) -->
  <!-- Loops opening to the left -->
  <path d="M20 180 Q20 60 100 60 Q160 60 160 100 Q160 130 130 140" stroke-width="2"/>
  <path d="M25 175 Q25 70 100 70 Q150 70 150 105 Q150 130 125 138"/>
  <path d="M30 170 Q30 80 100 80 Q140 80 140 110 Q140 130 120 136"/>
  <path d="M35 165 Q35 88 100 88 Q132 88 132 112 Q132 128 115 134"/>
  <path d="M40 160 Q40 95 100 95 Q125 95 125 115 Q125 128 110 132"/>
  <path d="M45 155 Q45 100 100 100 Q118 100 118 118 Q118 128 105 130"/>
  <path d="M50 150 Q50 105 100 105 Q112 105 112 120 Q112 126 100 128"/>
  <path d="M55 145 Q55 110 95 110 Q105 110 105 120"/>
  <!-- Core and delta indicators -->
  <circle cx="100" cy="95" r="3" fill="#e53e3e" stroke="none"/>
  <polygon points="145,145 140,155 150,155" fill="#3182ce" stroke="none"/>
  <!-- Label -->
  <text x="100" y="195" text-anchor="middle" font-family="Arial" font-size="10" fill="#718096">Radial Loop</text>
</svg>